<?xml version="1.0" encoding="UTF-8"?>
<svg xmlns="http://www.w3.org/2000/svg" xmlns:xlink="http://www.w3.org/1999/xlink" width="459.5pt" height="582.1pt" viewBox="0 0 459.5 582.1" version="1.1">
<defs>
<clipPath id="clip1">
  <path d="M 0 0 L 459.5 0 L 459.5 582 L 0 582 Z M 0 0 "/>
</clipPath>
</defs>
<g id="surface1">
<g clip-path="url(#clip1)" clip-rule="nonzero">
<path style=" stroke:none;fill-rule:evenodd;fill:rgb(45.872498%,77.34375%,94.139099%);fill-opacity:1;" d="M 0.371094 445.453125 L 0.371094 0.222656 L 459.304688 0.222656 L 459.304688 445.453125 C 459.304688 508.613281 424.617188 540.777344 373.984375 540.777344 L 292.609375 540.777344 C 266.003906 540.777344 243.707031 555.554688 229.835938 581.464844 C 215.964844 555.554688 193.671875 540.777344 167.0625 540.777344 L 85.691406 540.777344 C 35.054688 540.777344 0.371094 508.613281 0.371094 445.453125 Z M 0.371094 445.453125 "/>
</g>
<path style="fill:none;stroke-width:5.669;stroke-linecap:butt;stroke-linejoin:miter;stroke:rgb(45.872498%,77.34375%,94.139099%);stroke-opacity:1;stroke-miterlimit:4;" d="M 3.710938 1366.46875 L 3.710938 5818.773438 L 4593.046875 5818.773438 L 4593.046875 1366.46875 C 4593.046875 734.867188 4246.171875 413.226563 3739.84375 413.226563 L 2926.09375 413.226563 C 2660.039063 413.226563 2437.070313 265.453125 2298.359375 6.351563 C 2159.648438 265.453125 1936.71875 413.226563 1670.625 413.226563 L 856.914063 413.226563 C 350.546875 413.226563 3.710938 734.867188 3.710938 1366.46875 Z M 3.710938 1366.46875 " transform="matrix(0.1,0,0,-0.1,0,582.1)"/>
<path style="fill-rule:evenodd;fill:rgb(100%,100%,100%);fill-opacity:1;stroke-width:5.669;stroke-linecap:butt;stroke-linejoin:miter;stroke:rgb(100%,100%,100%);stroke-opacity:1;stroke-miterlimit:4;" d="M 2298.359375 163.851563 C 2446.09375 367.523438 2661.523438 496.859375 2926.09375 496.859375 L 3739.84375 496.859375 C 4273.28125 496.859375 4509.414063 866.039063 4509.414063 1366.46875 L 4509.414063 5735.101563 L 87.304688 5735.101563 L 87.304688 1366.46875 C 87.304688 866.039063 323.476563 496.859375 856.914063 496.859375 L 1670.625 496.859375 C 1935.195313 496.859375 2150.625 367.523438 2298.359375 163.851563 Z M 2298.359375 163.851563 " transform="matrix(0.1,0,0,-0.1,0,582.1)"/>
<path style="fill-rule:evenodd;fill:rgb(100%,100%,100%);fill-opacity:1;stroke-width:5.669;stroke-linecap:butt;stroke-linejoin:miter;stroke:rgb(100%,100%,100%);stroke-opacity:1;stroke-miterlimit:4;" d="M 170.898438 4505.140625 L 4425.820313 4505.140625 L 4425.820313 1366.46875 C 4425.820313 913.929688 4226.5625 580.453125 3739.84375 580.453125 L 2926.09375 580.453125 C 2676.015625 580.453125 2459.960938 475.570313 2298.359375 296.585938 C 2136.757813 475.570313 1920.703125 580.453125 1670.625 580.453125 L 856.914063 580.453125 C 370.195313 580.453125 170.898438 913.929688 170.898438 1366.46875 Z M 170.898438 4505.140625 " transform="matrix(0.1,0,0,-0.1,0,582.1)"/>
<path style="fill-rule:evenodd;fill:rgb(45.872498%,77.34375%,94.139099%);fill-opacity:1;stroke-width:5.669;stroke-linecap:butt;stroke-linejoin:miter;stroke:rgb(45.872498%,77.34375%,94.139099%);stroke-opacity:1;stroke-miterlimit:4;" d="M 170.898438 4505.140625 L 780 4505.140625 L 780 583.421875 C 349.140625 617.171875 170.898438 938.617188 170.898438 1366.46875 Z M 170.898438 4505.140625 " transform="matrix(0.1,0,0,-0.1,0,582.1)"/>
<path style="fill-rule:evenodd;fill:rgb(45.872498%,77.34375%,94.139099%);fill-opacity:1;stroke-width:5.669;stroke-linecap:butt;stroke-linejoin:miter;stroke:rgb(45.872498%,77.34375%,94.139099%);stroke-opacity:1;stroke-miterlimit:4;" d="M 1389.0625 4505.140625 L 1998.125 4505.140625 L 1998.125 514.320313 C 1897.890625 557.328125 1788.007813 580.453125 1670.625 580.453125 L 1389.0625 580.453125 Z M 1389.0625 4505.140625 " transform="matrix(0.1,0,0,-0.1,0,582.1)"/>
<path style="fill-rule:evenodd;fill:rgb(45.872498%,77.34375%,94.139099%);fill-opacity:1;stroke-width:5.669;stroke-linecap:butt;stroke-linejoin:miter;stroke:rgb(45.872498%,77.34375%,94.139099%);stroke-opacity:1;stroke-miterlimit:4;" d="M 2607.1875 4505.140625 L 3216.289063 4505.140625 L 3216.289063 580.453125 L 2926.09375 580.453125 C 2812.070313 580.453125 2705.15625 558.617188 2607.1875 517.953125 Z M 2607.1875 4505.140625 " transform="matrix(0.1,0,0,-0.1,0,582.1)"/>
<path style="fill-rule:evenodd;fill:rgb(45.872498%,77.34375%,94.139099%);fill-opacity:1;stroke-width:5.669;stroke-linecap:butt;stroke-linejoin:miter;stroke:rgb(45.872498%,77.34375%,94.139099%);stroke-opacity:1;stroke-miterlimit:4;" d="M 3825.351563 4505.140625 L 4425.820313 4505.140625 L 4425.820313 1366.46875 C 4425.820313 941.429688 4250 621.390625 3825.351563 584.125 Z M 3825.351563 4505.140625 " transform="matrix(0.1,0,0,-0.1,0,582.1)"/>
<path style="fill-rule:evenodd;fill:rgb(45.872498%,77.34375%,94.139099%);fill-opacity:1;stroke-width:5.669;stroke-linecap:butt;stroke-linejoin:miter;stroke:rgb(45.872498%,77.34375%,94.139099%);stroke-opacity:1;stroke-miterlimit:4;" d="M 170.898438 4505.140625 L 4425.820313 4505.140625 L 4425.820313 5651.546875 L 170.898438 5651.546875 Z M 170.898438 4505.140625 " transform="matrix(0.1,0,0,-0.1,0,582.1)"/>
<path style=" stroke:none;fill-rule:evenodd;fill:rgb(100%,100%,100%);fill-opacity:1;" d="M 53.195313 107.484375 L 53.195313 41.046875 L 81.425781 41.046875 C 88.519531 41.046875 93.679688 41.648438 96.894531 42.839844 C 100.121094 44.03125 102.6875 46.148438 104.621094 49.195313 C 106.550781 52.257813 107.523438 55.738281 107.523438 59.664063 C 107.523438 64.660156 106.070313 68.773438 103.152344 72.023438 C 100.230469 75.269531 95.875 77.3125 90.0625 78.160156 C 92.953125 79.847656 95.332031 81.703125 97.203125 83.730469 C 99.085938 85.753906 101.621094 89.359375 104.804688 94.523438 L 112.902344 107.484375 L 96.878906 107.484375 L 87.265625 92.976563 C 83.820313 87.828125 81.457031 84.578125 80.171875 83.234375 C 78.90625 81.902344 77.5625 80.976563 76.140625 80.480469 C 74.703125 79.984375 72.449219 79.738281 69.355469 79.738281 L 66.636719 79.738281 L 66.636719 107.484375 Z M 66.636719 69.160156 L 76.558594 69.160156 C 82.984375 69.160156 86.988281 68.882813 88.59375 68.339844 C 90.1875 67.800781 91.453125 66.855469 92.351563 65.527344 C 93.261719 64.195313 93.710938 62.527344 93.710938 60.53125 C 93.710938 58.289063 93.105469 56.496094 91.917969 55.101563 C 90.726563 53.726563 89.042969 52.859375 86.878906 52.503906 C 85.78125 52.351563 82.523438 52.273438 77.097656 52.273438 L 66.636719 52.273438 Z M 179.949219 107.484375 L 165.46875 107.484375 L 159.738281 92.359375 L 133.113281 92.359375 L 127.597656 107.484375 L 113.378906 107.484375 L 139.15625 41.046875 L 153.355469 41.046875 Z M 155.378906 81.132813 L 146.15625 56.546875 L 137.191406 81.132813 Z M 229.566406 82.988281 L 242.546875 86.976563 C 240.554688 94.296875 237.230469 99.71875 232.59375 103.277344 C 227.960938 106.816406 222.085938 108.597656 214.964844 108.597656 C 206.140625 108.597656 198.894531 105.585938 193.207031 99.550781 C 187.535156 93.519531 184.691406 85.273438 184.691406 74.804688 C 184.691406 63.746094 187.550781 55.148438 193.253906 49.023438 C 198.957031 42.902344 206.464844 39.839844 215.769531 39.839844 C 223.894531 39.839844 230.492188 42.253906 235.5625 47.0625 C 238.589844 49.90625 240.847656 53.988281 242.359375 59.324219 L 229.101563 62.480469 C 228.316406 59.046875 226.675781 56.324219 224.1875 54.328125 C 221.6875 52.339844 218.65625 51.34375 215.101563 51.34375 C 210.175781 51.34375 206.171875 53.109375 203.113281 56.648438 C 200.035156 60.175781 198.507813 65.898438 198.507813 73.816406 C 198.507813 82.199219 200.023438 88.183594 203.035156 91.738281 C 206.0625 95.3125 209.988281 97.089844 214.824219 97.089844 C 218.394531 97.089844 221.46875 95.964844 224.035156 93.6875 C 226.601563 91.414063 228.453125 87.859375 229.566406 82.988281 Z M 253.59375 41.046875 L 267.039063 41.046875 L 267.039063 107.484375 L 253.59375 107.484375 Z M 279.816406 107.484375 L 279.816406 41.046875 L 292.828125 41.046875 L 320.148438 85.570313 L 320.148438 41.046875 L 332.570313 41.046875 L 332.570313 107.484375 L 319.144531 107.484375 L 292.242188 63.808594 L 292.242188 107.484375 Z M 377.644531 83.078125 L 377.644531 71.851563 L 406.480469 71.851563 L 406.480469 98.359375 C 403.683594 101.097656 399.617188 103.492188 394.289063 105.585938 C 388.972656 107.652344 383.578125 108.691406 378.109375 108.691406 C 371.171875 108.691406 365.128906 107.234375 359.96875 104.3125 C 354.824219 101.390625 350.945313 97.199219 348.347656 91.769531 C 345.753906 86.34375 344.453125 80.421875 344.453125 74.03125 C 344.453125 67.105469 345.90625 60.949219 348.796875 55.550781 C 351.703125 50.171875 355.9375 46.023438 361.515625 43.148438 C 365.777344 40.9375 371.0625 39.839844 377.398438 39.839844 C 385.632813 39.839844 392.078125 41.570313 396.714844 45.035156 C 401.335938 48.515625 404.316406 53.296875 405.644531 59.421875 L 392.292969 61.921875 C 391.367188 58.660156 389.605469 56.078125 387.027344 54.175781 C 384.460938 52.289063 381.246094 51.34375 377.382813 51.34375 C 371.542969 51.34375 366.890625 53.199219 363.445313 56.929688 C 360 60.65625 358.269531 66.175781 358.269531 73.492188 C 358.269531 81.394531 360.015625 87.316406 363.507813 91.261719 C 367.015625 95.203125 371.589844 97.183594 377.261719 97.183594 C 380.054688 97.183594 382.867188 96.628906 385.679688 95.527344 C 388.507813 94.429688 390.917969 93.089844 392.945313 91.507813 L 392.945313 83.078125 Z M 377.644531 83.078125 "/>
</g>
</svg>
